<svg enable-background="new 0 0 400 400" viewBox="0 0 400 400" xmlns="http://www.w3.org/2000/svg"><path d="m30.7 179.2c-3.4 3.1-5.1 7.1-5.1 12v87.8c0 5 1.7 9 5.1 12.1s7.5 4.4 12.5 3.9c7.9-.7 15.7-1.2 23.6-1.8v-16.6c-7.9.4-15.7.9-23.6 1.3 0-28.6 0-57.1 0-85.7 7.9.5 15.7.9 23.6 1.3v-16.8c-7.9-.6-15.7-1.2-23.6-1.8-4.9-.2-9.1 1.1-12.5 4.3"/><path d="m87.9 178.3c-5.8-.4-11.7-.8-17.5-1.2v115.9c12.7-.9 25.6-1.6 38.3-2.3v-15.9c-6.9.3-13.9.5-20.8.8z"/><path d="m112.1 290.5c5.9-.3 12-.6 17.9-.8 0-36.5 0-72.9 0-109.5-5.9-.2-12-.5-17.9-.8z"/><path d="m163.2 181.3c-9.9-.2-19.7-.5-29.6-.9v109.2c5.8-.2 11.8-.4 17.6-.6v-46.3h12c4.9 0 9-1.5 12.4-4.4 3.5-3 5.3-6.6 5.3-10.8v-30.6c0-4.2-1.7-7.9-5.3-10.8-3.4-3.2-7.6-4.7-12.4-4.8m0 46.1c-4 0-8 0-12 0v-30.9c4 .1 8 .1 12 .2z"/><path d="m318.6 238.5c3.5-3.2 5.2-7 5.2-11.6v-32.8c0-4.5-1.7-8.3-5.2-11.2-3.4-3.1-7.5-4.4-12.4-4.1-9.9.6-19.6 1.1-29.5 1.4v109.8c5.8.2 11.7.5 17.6.8v-47.3c4.9 15.8 9.8 31.8 14.6 48 5.8.4 11.7.7 17.5 1.1-5.1-17.1-10.3-33.7-15.3-50.1 2.8-.7 5.4-2 7.5-4m-24.2-43.2c4-.1 8-.3 12-.5v32.2c-3.9 0-8 .1-12 .1z"/><path d="m213.9 181.6c-9.9.1-19.7.1-29.6 0v107c5.8-.1 11.8-.1 17.6-.1v-45.8h12c4.9 0 9-1.4 12.4-4.4 3.5-3 5.3-6.6 5.3-10.9 0-10.3 0-20.4 0-30.7 0-4.2-1.7-7.8-5.3-10.7-3.4-3-7.5-4.4-12.4-4.4m0 45.8c-4 0-8 0-12 0v-30.5h12z"/><path d="m235.1 288.7c12.8.2 25.7.6 38.4 1.1v-15.6c-6.9-.2-13.9-.4-20.8-.5v-31c4 0 11.1 0 15 .1 0-5.2 0-10.4 0-15.5-4 0-11.1 0-15 .1v-31c7-.1 13.9-.3 20.8-.5v-15.6c-12.8.5-25.7.9-38.4 1.1z"/><path d="m376.3 208.7v-17.6c0-4.9-1.7-8.8-5.2-11.9-3.4-3.2-7.5-4.5-12.3-4.1-4.9.4-9.9.8-14.8 1.2s-9.1 2.3-12.5 5.8c-3.4 3.4-5.1 7.4-5.1 11.9v32.9c0 4.6 1.7 8.5 5.1 11.7s7.6 4.9 12.5 4.9c4.9.1 9.9.1 14.8.2v34.3c-4.9-.3-9.9-.6-14.8-.9v-16.8c-5.8-.2-11.7-.4-17.5-.6v16.5c0 4.6 1.7 8.6 5.1 12 3.4 3.5 7.6 5.3 12.5 5.7s9.9.8 14.8 1.2c4.8.4 8.9-.9 12.3-3.9 3.5-3.1 5.2-7.1 5.2-12.1v-35.2c0-4.9-1.7-9-5.2-12.4-3.4-3.5-7.5-5.1-12.3-5-4.9.1-9.9.1-14.8.2v-33.7c4.9-.3 9.9-.6 14.8-.9v17.2c5.8-.1 11.7-.4 17.4-.6"/><g fill="#bec0c2"><path d="m44.1 177c6.9.6 14.2 1.2 21.5 1.7v-.7c-7.5-.6-15-1.2-22.5-1.7-.6-.1-1.1-.1-1.6-.1-3.9 0-7.2 1.2-10 3.8-3.2 2.9-4.7 6.6-4.7 11.1v87.9c0 3.7 1.1 6.9 3.1 9.5-1.5-2.4-2.3-5.2-2.3-8.4v-87.9c0-4.6 1.6-8.3 4.8-11.3 2.8-2.7 6.1-3.9 10.1-3.9z"/><path d="m86.7 180.1v-.7c-5.1-.3-10.2-.7-15.2-1v113.3l.8-.1v-112.4h.1c4.6.3 9.4.5 14.3.9"/><path d="m128.9 182.1v-.8c-5.1-.2-10.4-.4-15.5-.7v108.5h.8v-107.5h.1c4.8.2 9.6.4 14.6.5"/><path d="m164.2 183.2c3.5.1 6.7 1 9.5 2.7-3-2.2-6.5-3.5-10.5-3.5-9.4-.2-19-.5-28.4-.8v106.8h.8v-106h.1c9.4.4 19.1.6 28.5.8"/><path d="m308.5 180.6c3.2 0 5.9.8 8.4 2.3-2.7-2.1-5.8-3.1-9.4-3.1-.4 0-.8 0-1.2 0-9.3.5-18.9 1-28.5 1.3v107.6h.8v-106.7h.1c9.6-.4 19.3-.9 28.6-1.3.5-.1.9-.1 1.2-.1"/><path d="m202.1 183.6h12.9.2c3.6 0 6.7.9 9.5 2.6-3-2.3-6.4-3.4-10.5-3.4h-.2c-4.3 0-8.7 0-12.9 0-5.1 0-10.3 0-15.5-.1v104.6h.8v-103.7h.1z"/><path d="m272.4 181.5c-12 .5-24.1.8-36.1 1.1v105.1h.8v-104.4h.1c11.6-.2 23.5-.6 35.2-1z"/><path d="m359.9 177c.5 0 1.1-.1 1.5-.1 2.9 0 5.4.7 7.7 2.1-2.5-1.9-5.4-2.9-8.7-2.9-.5 0-1.1 0-1.5.1-4.9.4-9.9.8-14.8 1.2-4.6.4-8.5 2.2-11.7 5.5-3.2 3.2-4.8 6.8-4.8 11v32.9c0 3.5 1 6.4 3 9-1.5-2.3-2.2-5-2.2-8v-32.9c0-4.3 1.5-8 4.8-11.2 3.3-3.4 7.2-5.2 11.9-5.6 4.9-.3 9.9-.7 14.8-1.1"/></g><path d="m25.7 314.1c116.2-14.5 234.5-14.5 350.7 0v-6.1c-116.2-13.4-234.5-13.4-350.7 0z" fill="#1d428a"/><path d="m68 330.3c87.8-22.7 178.3-22.7 266.1 0v-5.8c-87.8-22.1-178.2-22.1-266.1 0z" fill="#c8102e"/><path d="m166.2 164.4c-47-1.2-93.9-4.6-140.5-10.4v6.1c49.6 5.8 99.5 9 149.4 9.9-3.1-1.8-6.1-3.6-8.9-5.6" fill="#1d428a"/><path d="m235.8 164.4c-2.8 2.1-5.8 3.9-8.9 5.5 49.9-.9 99.9-4.1 149.4-9.9v-6.1c-46.6 5.8-93.4 9.4-140.5 10.5" fill="#1d428a"/><path d="m154.5 152.7c-28.9-2.6-57.9-7.6-86.5-15v5.8c30.3 7.7 60.8 12.7 91.4 15-1.7-1.9-3.4-3.8-4.9-5.8" fill="#c8102e"/><path d="m247.5 152.7c-1.5 2-3.2 3.9-5 5.8 30.7-2.4 61.2-7.4 91.4-15v-5.8c-28.5 7.4-57.4 12.4-86.4 15" fill="#c8102e"/><path d="m146.9 117.7c0-29.8 24.2-54.1 54.1-54.1 29.8 0 54.1 24.2 54.1 54.1s-24.2 54.1-54.1 54.1c-29.8 0-54.1-24.2-54.1-54.1" fill="#fff"/><path d="m201 63.7c-29.8 0-54.1 24.2-54.1 54.1s24.2 54.1 54.1 54.1 54.1-24.2 54.1-54.1-24.3-54.1-54.1-54.1m39.1 24c6.2 8.1 9.7 17.5 10.2 27.7h-20.4c.4-10.1 4-19.6 10.2-27.7m-78.2 0c6.2 8.1 9.7 17.5 10.2 27.7h-20.4c.5-10.1 4.1-19.6 10.2-27.7m0 60c-6.2-8.1-9.7-17.5-10.2-27.7h20.4c-.4 10.2-4 19.8-10.2 27.7m41.5 19.3v-14.1h-4.7v14.1c-12.8-.6-24.7-6.1-33.5-15.5 7.2-9 11.3-19.8 11.8-31.3v-4.7c-.5-11.5-4.6-22.3-11.8-31.3 8.8-9.4 20.7-15 33.5-15.5v14h4.7v-14.2c12.8.6 24.7 6.1 33.5 15.5-7.2 9-11.3 19.8-11.8 31.3v4.7c.5 11.5 4.6 22.3 11.8 31.3-8.8 9.6-20.7 15.1-33.5 15.7m36.7-19.3c-6.2-8.1-9.7-17.5-10.2-27.7h20.4c-.5 10.2-4.1 19.8-10.2 27.7"/><path d="m188.9 95.1v45.1h24.2v-6.2h-17.7v-38.9z" fill="#c8102e"/><path d="m221.2 110.3v-18.6c0-2.8-1.2-3.9-3.8-3.9h-32.8c-2.7 0-3.8 1.2-3.8 3.9v52.2c0 2.8 1.2 3.9 3.8 3.9h32.8c2.8 0 3.8-1.2 3.8-3.9v-18.6h-6.5v16.8h-27.5v-48.7h27.5v16.8z" fill="#1d428a"/><path d="m213.1 132.3v-37.2h-15.6l-.2 37.2h6.2l.1-11.6h3.2v11.6zm-6.3-17.8h-3.2v-13.1h3.2z" fill="#c8102e"/></svg>