<svg enable-background="new 0 0 400 400" viewBox="0 0 400 400" xmlns="http://www.w3.org/2000/svg"><path d="m363.2 36c-.5-.7-1.3-1-2.1-1h-205.4c-24.5.1-39.5 10.6-44.7 31.4l-74.7 297.7c-.2.8 0 1.7.5 2.3.5.7 1.3 1 2.1 1h223.7c12.8 0 25.7-10.2 28.6-22.7l72.5-306.3c.2-.9 0-1.7-.5-2.4z" fill="#63727a"/><path d="m38.9 364.7h223.7c11.6 0 23.3-9.3 25.9-20.7l72.5-306.3h-205.3c-19 0-36.4 6.3-42.1 29.4z"/><path d="m279.1 246.1h-197.1l43.3-171.6c5.5-22.2 19.3-26.7 38.2-26.7h180.9l-41.4 179.2c-2.4 10.6-13.2 19.1-23.9 19.1zm-194-2.4h194c9.7 0 19.4-7.7 21.6-17.2l40.8-176.3h-178c-21.6 0-31.3 6.8-35.9 24.9z" fill="#63727a"/><path d="m114.3 342.4 5.3 7.4h40.9l16.6-65.7h-16.8l-14.2 56.4h-14.9l14.3-56.4h-21.1l-1.4 1.2 4.2 5.7z" fill="#fff"/><path d="m115.5 307.1 4-15.8-5.4-7.5h-33.5l-9.2 7.5-5.5 22.1 28.3 11.9-3.9 15.2h-14.8l1.8-7.1-14.8-6.8-3.9 15.8 5.3 7.4h33.6l9.1-7.4 5.6-22.2-28.3-11.9 3.8-15.2h14.8l-1.8 7.3z" fill="#fff"/><path d="m231.1 291.3-5.4-7.5h-40.9l-16.6 65.7h16.8l14.2-56.4h14.9l-14.2 56.4h21.1l1.3-1.2-4.2-5.6z" fill="#fff"/><path d="m282.9 307.1 3.9-15.8-5.3-7.5h-33.6l-9.1 7.5-5.6 22.1 28.3 11.9-3.8 15.2h-14.8l1.8-7.1-14.8-6.8-4 15.8 5.4 7.4h33.5l9.2-7.4 5.5-22.2-28.3-11.9 3.9-15.2h14.8l-1.8 7.3z" fill="#fff"/><g fill="#bec0c2"><path d="m62.5 326.6 6.1 9.2-1.3 5.2 3 4.2h23.7l4.7-3.8 7.9 1-9.1 7.4h-33.6l-5.3-7.4z"/><path d="m90.3 340.5 8.4.9 4.8-18.7-28.6-12 4.7-18.5-8.2-.9-5.5 22.1 28.3 11.9z"/><path d="m107.7 288.5h-23.2l-4.9 3.7 8.1.9h14.8l-1.8 7.3 8.8-2.7 1.3-5z"/><path d="m229.9 326.6 6 9.2-1.3 5.2 3.1 4.2h23.6l4.8-3.8 7.9 1-9.2 7.4h-33.5l-5.4-7.4z"/><path d="m257.7 340.5 8.4.9 4.7-18.7-28.6-12 4.7-18.5-8.1-.9-5.6 22.1 28.3 11.9z"/><path d="m275 288.5h-23.2l-4.9 3.7 8.2.9h14.8l-1.8 7.3 8.8-2.7 1.2-5z"/><path d="m123 285.3 13.1 3.2-13.2 52.5 3.1 4.2h27.2l7.3 4.6h-40.9l-5.3-7.4 12.9-51.4z"/><path d="m160.3 284.1 7.3 4.4-14.4 56.7-7.1-4.7z"/><path d="m192.1 288.5-7.3-4.7-16.6 65.7h16.8l-7.3-4.3z"/><path d="m209.2 345.2 13.3-52.6-3.1-4.1h-27.3l7.1 4.6h14.9l-14.2 56.4h21.1l1.3-1.2z"/></g><path d="m80.4 256.2-.4.4 1.4 1.8-4.2 17.3h5.8l.4-.4-1.5-1.7 1.1-4.7 9-2.8 1.9-7.6-1.8-2.4zm7.9 7.9-4.3 1.3 1.4-5.8h4z" fill="#fff"/><path d="m128.7 256.2h-4.3l-1.7 7-4.2 1 1.9-8h-5.8l-.4.4 1.4 1.8-4.2 17.3h4.3l1.9-7.7 4.2-1-2.1 8.7h5.8l.4-.4-1.4-1.7z" fill="#fff"/><path d="m152.8 256.2-2.9 2.3-3.6 14.8 1.8 2.4h7.9l2.9-2.4 3.6-14.8-1.8-2.3zm2 16.3h-4l3.2-13.1h4z" fill="#fff"/><path d="m229.7 258.5-1.8-2.3h-10.4l-4.8 19.5h4.3l4-16.3h4.2l-4 16.3h5.9l.4-.4-1.5-1.7z" fill="#fff"/><path d="m256.7 256.2h-5.8l-.4.4 1.4 1.8-4.3 17.3h5.9l.4-.4-1.4-1.7z" fill="#fff"/><path d="m288 273.7-2.3-7.6 7.7-9.9h-4.2l-4.5 6-1.5-6h-5.8l-.5.3 2.4 1.8 2.2 7.9-7.3 9.5h4.2l4.3-5.8 1.4 5.8h5.9l.4-.4z" fill="#fff"/><path d="m190.2 272.5h-5.1l1.2-5h4.2l.8-3.2h-4.2l1.2-4.9h4.7l1.2 1.7.5-.3 1.1-4.6h-12.5l-.4.4 1.3 1.8-4.2 17.3h11.4l1.1-4.6-.3-.3z" fill="#fff"/><path d="m90.3 240.6 110.8-60.7-75.1 60.7 91.2-52.4-1.5 10.5 15.2-8.4 34.4 32.5 18.3-55 26.4-1.7-13.5-33.3 24-18.8-31-12 7.9-33.4-26.4 12.1-13.6-28.7-21.1 21.1-38-17-5.2 33.9-33.9 7.3 20 12.1-20.1 10.1 17.1 1.5-70.5 54.8 70.9-37.6-76 57.9 80.9-42.2-86.4 65 95.3-50.8z" fill="#f9a01b"/><path d="m293.2 133.3c-1.3 30.5-27 54.1-57.4 52.9-30.5-1.3-54.1-27-52.9-57.4 1.3-30.5 27-54.1 57.4-52.9s54.1 26.9 52.9 57.4z" fill="#e56020"/><path d="m244.8 178.6c-30.5-1.3-54.1-27-52.9-57.4.6-14.1 6.4-26.7 15.5-36.1-14.2 9.5-23.8 25.3-24.5 43.7-1.3 30.5 22.4 56.2 52.9 57.4 16.4.7 31.4-5.9 41.9-16.8-9.4 6.2-20.8 9.7-32.9 9.2z" fill="#b95915"/><path d="m293.2 131.6c0-2-.1-3.9-.2-5.9-3.2-2.2-7-3.9-11.5-4.5-.9-.1-1.7-.2-2.5-.2-.5-3.6-1.4-7.2-2.5-10.7.6 0 1.1.1 1.7.1 3.9.3 7.7.7 11.5 1.3-.5-1.4-1.1-2.8-1.7-4.1-4.2-.6-8.6-1.1-12.9-1.5-1.4-3.6-3.1-7-5.1-10.2 2.8-.6 5.3-1.7 7.4-3.7-1-1.1-2.1-2.1-3.3-3-1.8 1.6-4.1 2.5-6.7 2.8-.4-.6-.8-1.1-1.2-1.7-3.8-4.9-8.1-9-12.8-12.4-4.2-1.2-8.5-1.9-13-2.1-.2 0-.5 0-.7 0 8.4 3.3 15.9 8.8 21.9 16.3-5.7-.6-12.4-2.5-18.9-4.4-1.9-.6-3.8-1.1-5.7-1.6-11.2-3.1-19.7-3.6-26.2-3-4.8 2.7-9.1 6.2-12.9 10.1 6.9-2.9 21-7.9 38-3.1 1.8.5 3.7 1 5.6 1.6 7.5 2.2 16 4.7 23.2 4.8 2 3 3.8 6.2 5.2 9.5-1.4-.1-2.9-.1-4.3-.1-35.4-.6-65.8 10-82.7 26.9.1 3.4.5 6.6 1.1 9.8 4.8-6.8 11.8-13 20.9-18.1 17.2-9.6 39.9-14.7 64.1-14.3.8 0 1.7 0 2.5.1 1.2 3.5 2.1 7.1 2.7 10.8-15.6.7-25.7 10.4-37.3 20.7-10.4 9.3-23.1 18.6-41.7 24.2 1.8 2.2 3.7 4.2 5.7 6 17.5-7.1 29.1-18 39-26.8 11.2-10 20.7-19.6 34.8-20 .4 3.9.4 7.9 0 11.9-1.9 21.6-14.4 40-31.5 49 4.4-.4 8.6-1.3 12.6-2.7 1.4-1.1 2.7-2.3 4-3.6 11.2-11 18.1-26.1 19.6-42.3.4-4.1.4-8.1 0-12.1.7.1 1.4.1 2.1.3 4.9.6 8.7 3 11.7 5.9z"/></svg>