<svg enable-background="new 0 0 400 400" viewBox="0 0 400 400" xmlns="http://www.w3.org/2000/svg"><path d="m340 39-40.1 40.3-33.6-33.4-33.6 33.4-33.6-33.6-33.4 33.4-33.4-33.4-33.4 33.6-38.9-39.5v178.1c0 77.5 62.2 140.5 139.6 140.5s140.4-63 140.4-140.5z" fill="#fff"/><path d="m72.5 242.3c3.3 16.8 9.9 32.5 19.5 47 5.9-10.3 17.5-22.8 40.4-28.3-1.7-5.9-3.3-12.1-4.6-18.6z" fill="#63717a"/><path d="m101.1 301.3c24.7 29 60.4 45.6 97.8 45.9-3.6-1.8-6.9-3.8-10.4-6-15.9-10.3-37.8-30.3-51.9-67.4-22.1 4.9-31.6 17.5-35.5 27.5" fill="#63717a"/><path d="m150.5 272c10.1 25.2 25.2 44.6 45 57.6 13.1 8.6 25.8 12.4 34 14.3 20.8-4.7 40.2-14.8 56.3-29-12.6-1.4-25.8-8.6-39.3-16.3-21.5-12-48.1-26.9-84.1-26.9-3.9-.2-7.9-.1-11.9.3" fill="#63717a"/><path d="m204.5 176.7h-46.2v55.1h19.2v-44.3h14.5v44.3h18.3v-47.3c0-4.1-2.6-7.8-5.8-7.8" fill="#592d81"/><path d="m218.3 176.7v47.3c0 4.2 2.6 7.8 5.7 7.8h30.3 16v-33.6h-18.4v22.5h-14.4v-33.6h32.9v-10.6z" fill="#592d81"/><path d="m107 176.7-10.4 22.4h-6v-22.4h-19.2v55.2h19.2v-22.2h6l10.4 22.2h19.2l-13.4-27.4 13.4-27.8z" fill="#592d81"/><path d="m131.2 176.7h19.8v55.1h-19.8z" fill="#592d81"/><path d="m328.6 191.7v-14.9h-50.8v25.2c0 4.2 2.6 7.6 5.7 7.6h25.9v12h-31.7v10.4h50.8v-25.3c0-3.9-2.2-7.6-5-7.6h-26.7v-11.6h13.4v4.2z" fill="#592d81"/><path d="m274.5 120.9h-16.1l33.3-33.5-25.3-25.4-33.6 33.5-33.5-33.5-58.7 58.9h-16.3l33.5-33.6-25.3-25.3-33.4 33.5-27.7-27.5v54.9 43.8h257.2v-42.5-57.4z" fill="#592d81"/><g fill="#fff"><path d="m127.6 156.1c0 1.4 1.1 2.6 2.6 2.6h14.3v-3.8h-11.8v-12.5h11.8v-3.9h-17v17.6z"/><path d="m104 138.4v20.3h5.2v-5.3h6.6v5.3h5.2v-17.8c0-1.5-1.2-2.6-2.9-2.6h-14v.1zm11.7 11.1h-6.6v-7.3h6.6z"/><path d="m316.3 138.4h-11.9c-1.4 0-2.6 1.1-2.6 2.6v15.1c0 1.4 1.1 2.6 2.6 2.6h11.9c1.4 0 2.6-1.2 2.6-2.6v-15.1c.2-1.5-1-2.6-2.6-2.6m-2.5 16.3h-6.5v-12.5h6.5z"/><path d="m80.4 147.9c0 1.4 1.1 2.6 2.6 2.6h9.2v4.4h-11.8v3.9h17v-9.6c0-1.3-.9-2.5-2.4-2.6h-.1-9.4v-4.4h11.8v-3.9h-16.9z"/><path d="m188.7 138.4h-14.4v20.3h5.2v-5.3h6.6v5.3h5.2v-17.8c.1-1.4-1.2-2.5-2.6-2.5m-2.7 11.1h-6.6v-7.3h6.6z"/><path d="m279 142.2h6v16.5h5.1v-16.5h5.9v-3.8h-17z"/><path d="m224.5 138.4h-26.2v20.3h5.2v-16.4h6.5v16.4h5.3v-16.4h6.5v16.4h5.2v-17.8c0-1.4-1.1-2.5-2.5-2.5"/><path d="m271.1 138.4h-14.5v20.3h5.2v-16.4h6.6v16.4h5.2v-17.8c.1-1.4-1-2.5-2.5-2.5"/><path d="m234.2 156.1c0 1.4 1.1 2.6 2.6 2.6h14.4v-3.8h-11.8v-4.4h11.8v-3.9h-11.8v-4.5h11.8v-3.8h-17z"/><path d="m164.9 151.2h2.8v-10.4c0-1.5-1.2-2.6-2.9-2.6h-14.2v20.3h5.2v-7.4h3.8l3.2 7.4h5zm-2.3-3.9h-6.6v-5.2h6.6z"/></g><path d="m159.4 257.9c27.3-.5 54.6 6.4 89.1 26 25.6 14.5 36.8 18.9 44.5 17.1 7-1.7 13.7-6 25.2-30.3 4.4-9.4 7.6-20.3 9-28.4h-185.8c1.3 5.7 2.6 11.3 4.3 16.3 4.4-.4 9.2-.7 13.7-.7" fill="#63717a"/></svg>