<svg enable-background="new 0 0 512 512" viewBox="0 0 512 512" xmlns="http://www.w3.org/2000/svg"><g fill="#061922"><path d="m160.7 410.7h-19.6l-23.6 94.5h16.6l5.1-21.3h23.4l5.2 21.3h16.6zm-17.6 56.6 7.8-31.8 7.6 31.8z"/><path d="m246.1 410.7v94.4h-16.5v-39.7h-21.5v39.7h-16.5v-94.4h16.5v38.2h21.5v-38.2z"/><path d="m123.7 427.2h-18v77.9h-16.6v-77.9h-17.9v-16.5h52.5z"/><path d="m63.7 410.7v74.8c0 5.6-2.1 10.8-5.9 14.7-3.8 3.8-9 5.9-14.7 5.9h-14.4c-5.6 0-10.8-2.1-14.7-5.9-3.8-3.8-5.9-9-5.9-14.7v-74.8h16.5v78.9h22.6v-78.9z"/><path d="m324.7 411.1v74.9c0 5.6-2.1 10.8-5.9 14.7-3.8 3.8-9 5.9-14.7 5.9h-14.4c-5.6 0-10.8-2.1-14.7-5.9-3.8-3.8-5.9-9-5.9-14.7v-18.8h16.5v23.1h22.5l.1-79.1h16.5z"/><path d="m373.2 411.1h-19.6l-23.6 94.5h16.6l5.1-21.3h23.4l5.2 21.3h16.6zm-2.1 56.7h-15.4l7.8-31.8z"/><path d="m450.6 427.3-30.5 61.8h30.5v16.5h-49.1v-16.1-.1l30.5-61.7h-30.5v-16.6h49.1v16.1z"/><path d="m507.9 427.3-30.5 61.8h30.5v16.5h-49.1v-16.1-.1l30.5-61.7h-30.5v-16.6h49.1v16.1z"/><path d="m510.9 7.6-49.9 107h-199.6l-62.9 134.9h-56.4c.4-6.7 1.8-13.5 4-20.1 5.4-16.3 15.6-29.7 28.4-39.3 3.4 3.8 6.4 8 9.1 12.4.4.7 1.3.6 1.6 0l90.8-194.9z"/><path d="m48.6 291.3c-5.7 11.4-13.8 21.1-23.7 28.5-8.3-9.6-14.9-20.8-19.1-33.6-2.8-8.5-4.4-17.2-4.9-25.7h56.1c-.7 10.6-3.6 21-8.4 30.8"/><path d="m94 260.5v93.3c-22.9-1.3-44.7-10.6-61.4-26.1 10.7-8.3 19.5-19 25.8-31.5 5.7-11.3 8.9-23.4 9.6-35.7z"/><path d="m53 229.4c2.2 6.6 3.5 13.3 4 20.1h-56.1c1.2-21.9 9.7-42.8 23.9-59.2 12.7 9.5 22.8 22.9 28.2 39.1"/><path d="m94 156.2v93.3h-26c-.5-7.9-2-15.8-4.5-23.5-6-18-17-32.8-30.9-43.6 10-9.3 22.1-16.6 35.9-21.2 8.5-2.9 17-4.5 25.5-5"/><path d="m131 249.5h-26v-93.3c23 1.3 44.8 10.5 61.5 25.9-14.4 11.1-25.2 26.2-31 43.8-2.5 7.8-4 15.7-4.5 23.6"/><path d="m166.6 327.9c-10 9.2-22 16.5-35.7 21-8.6 2.8-17.2 4.5-25.8 4.9v-93.3h25.9c.8 12.3 4 24.4 9.7 35.7 6.2 12.6 15.1 23.3 25.9 31.7"/><path d="m198.5 260.5c-1.2 22-9.8 42.9-24.1 59.4-10-7.4-18.1-17.1-23.9-28.6-4.9-9.8-7.7-20.2-8.4-30.8z"/></g></svg>